<svg width="212" height="73" viewBox="0 0 212 73" fill="none" xmlns="http://www.w3.org/2000/svg">
<path d="M24.0781 30H0.078125V26H24.0781C24.6406 26 25.1094 25.8125 25.4844 25.4375C25.8802 25.0417 26.0781 24.5625 26.0781 24C26.0781 23.4375 25.8802 22.9688 25.4844 22.5938C25.1094 22.1979 24.6406 22 24.0781 22H16.0781C14.4115 22 12.9948 21.4167 11.8281 20.25C10.6615 19.0833 10.0781 17.6667 10.0781 16C10.0781 14.3333 10.6615 12.9167 11.8281 11.75C12.9948 10.5833 14.4115 10 16.0781 10H28.0781V14H16.0781C15.5156 14 15.0365 14.1979 14.6406 14.5938C14.2656 14.9688 14.0781 15.4375 14.0781 16C14.0781 16.5625 14.2656 17.0417 14.6406 17.4375C15.0365 17.8125 15.5156 18 16.0781 18H24.0781C25.7448 18 27.1615 18.5833 28.3281 19.75C29.4948 20.9167 30.0781 22.3333 30.0781 24C30.0781 25.6667 29.4948 27.0833 28.3281 28.25C27.1615 29.4167 25.7448 30 24.0781 30ZM42.6719 14V38H38.6719V14H30.6719V10H50.6719V14H42.6719ZM59.7656 30C56.9948 30 54.6302 29.0312 52.6719 27.0938C50.7344 25.1354 49.7656 22.7708 49.7656 20C49.7656 17.2292 50.7344 14.875 52.6719 12.9375C54.6302 10.9792 56.9948 10 59.7656 10C62.5365 10 64.8906 10.9792 66.8281 12.9375C68.7865 14.875 69.7656 17.2292 69.7656 20C69.7656 22.7708 68.7865 25.1354 66.8281 27.0938C64.8906 29.0312 62.5365 30 59.7656 30ZM59.7656 26C61.4323 26 62.849 25.4167 64.0156 24.25C65.1823 23.0833 65.7656 21.6667 65.7656 20C65.7656 18.3333 65.1823 16.9167 64.0156 15.75C62.849 14.5833 61.4323 14 59.7656 14C58.099 14 56.6823 14.5833 55.5156 15.75C54.349 16.9167 53.7656 18.3333 53.7656 20C53.7656 21.6667 54.349 23.0833 55.5156 24.25C56.6823 25.4167 58.099 26 59.7656 26ZM76.0781 30H72.0781V10H86.0781C87.7448 10 89.1615 10.5833 90.3281 11.75C91.4948 12.9167 92.0781 14.3333 92.0781 16C92.0781 17.6667 91.4948 19.0833 90.3281 20.25C89.1615 21.4167 87.7448 22 86.0781 22H85.2031L94.0781 38H90.0781L79.0781 18H86.0781C86.6406 18 87.1094 17.8125 87.4844 17.4375C87.8802 17.0417 88.0781 16.5625 88.0781 16C88.0781 15.4375 87.8802 14.9688 87.4844 14.5938C87.1094 14.1979 86.6406 14 86.0781 14H76.0781V30ZM99.6094 18V38H95.6094V10H99.6094L107.609 25L115.609 10H119.609V30H115.609V18L109.609 30H105.609L99.6094 18ZM131.922 30C129.151 30 126.786 29.0312 124.828 27.0938C122.891 25.1354 121.922 22.7708 121.922 20C121.922 17.2292 122.891 14.875 124.828 12.9375C126.786 10.9792 129.151 10 131.922 10C134.693 10 137.047 10.9792 138.984 12.9375C140.943 14.875 141.922 17.2292 141.922 20C141.922 22.7708 140.943 25.1354 138.984 27.0938C137.047 29.0312 134.693 30 131.922 30ZM131.922 26C133.589 26 135.005 25.4167 136.172 24.25C137.339 23.0833 137.922 21.6667 137.922 20C137.922 18.3333 137.339 16.9167 136.172 15.75C135.005 14.5833 133.589 14 131.922 14C130.255 14 128.839 14.5833 127.672 15.75C126.505 16.9167 125.922 18.3333 125.922 20C125.922 21.6667 126.505 23.0833 127.672 24.25C128.839 25.4167 130.255 26 131.922 26ZM153.078 14V38H149.078V14H141.078V10H161.078V14H153.078ZM167.297 30H163.297V10H167.297V30ZM179.609 30C176.839 30 174.474 29.0312 172.516 27.0938C170.578 25.1354 169.609 22.7708 169.609 20C169.609 17.2292 170.578 14.875 172.516 12.9375C174.474 10.9792 176.839 10 179.609 10C182.38 10 184.734 10.9792 186.672 12.9375C188.63 14.875 189.609 17.2292 189.609 20C189.609 22.7708 188.63 25.1354 186.672 27.0938C184.734 29.0312 182.38 30 179.609 30ZM179.609 26C181.276 26 182.693 25.4167 183.859 24.25C185.026 23.0833 185.609 21.6667 185.609 20C185.609 18.3333 185.026 16.9167 183.859 15.75C182.693 14.5833 181.276 14 179.609 14C177.943 14 176.526 14.5833 175.359 15.75C174.193 16.9167 173.609 18.3333 173.609 20C173.609 21.6667 174.193 23.0833 175.359 24.25C176.526 25.4167 177.943 26 179.609 26ZM195.922 16V38H191.922V10H195.922L207.922 24V0H211.922V30H207.922L195.922 16ZM14.1875 49V73H10.1875V49H2.1875V45H22.1875V49H14.1875ZM56.4062 57H33.4062V53H56.4062V57ZM44.4062 45V49H28.4062V61H44.4062V65H24.4062V45H44.4062ZM75.2812 65H51.2812V61H75.2812C75.8438 61 76.3125 60.8125 76.6875 60.4375C77.0833 60.0417 77.2812 59.5625 77.2812 59C77.2812 58.4375 77.0833 57.9688 76.6875 57.5938C76.3125 57.1979 75.8438 57 75.2812 57H67.2812C65.6146 57 64.1979 56.4167 63.0312 55.25C61.8646 54.0833 61.2812 52.6667 61.2812 51C61.2812 49.3333 61.8646 47.9167 63.0312 46.75C64.1979 45.5833 65.6146 45 67.2812 45H79.2812V49H67.2812C66.7188 49 66.2396 49.1979 65.8438 49.5938C65.4688 49.9688 65.2812 50.4375 65.2812 51C65.2812 51.5625 65.4688 52.0417 65.8438 52.4375C66.2396 52.8125 66.7188 53 67.2812 53H75.2812C76.9479 53 78.3646 53.5833 79.5312 54.75C80.6979 55.9167 81.2812 57.3333 81.2812 59C81.2812 60.6667 80.6979 62.0833 79.5312 63.25C78.3646 64.4167 76.9479 65 75.2812 65ZM93.875 49V73H89.875V49H81.875V45H101.875V49H93.875ZM133.875 49V73H129.875V49H121.875V45H141.875V49H133.875ZM136.75 65L146.75 44L156.75 65H152.25L146.75 53.5L141.25 65H136.75ZM181.75 65H157.75V61H181.75C182.312 61 182.781 60.8125 183.156 60.4375C183.552 60.0417 183.75 59.5625 183.75 59C183.75 58.4375 183.552 57.9688 183.156 57.5938C182.781 57.1979 182.312 57 181.75 57H173.75C172.083 57 170.667 56.4167 169.5 55.25C168.333 54.0833 167.75 52.6667 167.75 51C167.75 49.3333 168.333 47.9167 169.5 46.75C170.667 45.5833 172.083 45 173.75 45H185.75V49H173.75C173.188 49 172.708 49.1979 172.312 49.5938C171.938 49.9688 171.75 50.4375 171.75 51C171.75 51.5625 171.938 52.0417 172.312 52.4375C172.708 52.8125 173.188 53 173.75 53H181.75C183.417 53 184.833 53.5833 186 54.75C187.167 55.9167 187.75 57.3333 187.75 59C187.75 60.6667 187.167 62.0833 186 63.25C184.833 64.4167 183.417 65 181.75 65ZM193.812 57.8438V65H189.812V45H193.812V52.1562L203.812 45H209.812L195.812 55L209.812 65H203.812L193.812 57.8438Z" fill="white"/>
</svg>
